<svg xmlns="http://www.w3.org/2000/svg" width="48" height="48" viewBox="0 0 48 48" fill="none">
  <defs>
    <linearGradient id="shieldGrad" x1="24" y1="2" x2="24" y2="46" gradientUnits="userSpaceOnUse">
      <stop offset="0%" stop-color="#a855f7"/>
      <stop offset="100%" stop-color="#6d28d9"/>
    </linearGradient>
    <linearGradient id="boltGrad" x1="24" y1="14" x2="24" y2="36" gradientUnits="userSpaceOnUse">
      <stop offset="0%" stop-color="#ffffff"/>
      <stop offset="100%" stop-color="#ede6ff"/>
    </linearGradient>
  </defs>
  <!-- Shield body -->
  <path d="M24 2 L44 10 L44 22 C44 34 35 42 24 46 C13 42 4 34 4 22 L4 10 Z" fill="url(#shieldGrad)" stroke="#7c3aed" stroke-width="1.5" stroke-linejoin="round"/>
  <!-- Inner highlight -->
  <path d="M24 5 L41 12 L41 22 C41 32.5 33 39.5 24 43 C15 39.5 7 32.5 7 22 L7 12 Z" fill="none" stroke="#c084fc" stroke-width="0.75" stroke-opacity="0.5" stroke-linejoin="round"/>
  <!-- Lightning bolt -->
  <path d="M26.5 14 L19 26 H23.5 L21.5 36 L29 24 H24.5 Z" fill="url(#boltGrad)"/>
</svg>